<svg xmlns="http://www.w3.org/2000/svg" width="22.19" height="19.5" viewBox="0 0 22.19 19.5">
  <path id="Path_27555" data-name="Path 27555" d="M20.753,6.511a2.207,2.207,0,0,1,1.592,2.1v4.286a2.232,2.232,0,0,1-2.1,2.193c-.361.027-.722.052-1.082.072V18.25l-3.183-3q-2.155,0-4.265-.163a2.346,2.346,0,0,1-.875-.242m9.915-8.334a2.377,2.377,0,0,0-.5-.1,54.748,54.748,0,0,0-8.539,0,2.23,2.23,0,0,0-2.1,2.192v4.286a2.192,2.192,0,0,0,1.226,1.951m9.915-8.334V4.637A3.283,3.283,0,0,0,17.825,1.4a54.723,54.723,0,0,0-13.242,0A3.283,3.283,0,0,0,1.655,4.637v6.226A3.283,3.283,0,0,0,4.583,14.1q.918.113,1.846.194V19l4.409-4.155" transform="translate(-0.905 -0.25)" fill="none" stroke="#fff" stroke-linecap="round" stroke-linejoin="round" stroke-width="1.5"/>
</svg>
